<?xml version="1.0" encoding="UTF-8" standalone="no"?>
<svg
   xmlns:dc="http://purl.org/dc/elements/1.1/"
   xmlns:cc="http://creativecommons.org/ns#"
   xmlns:rdf="http://www.w3.org/1999/02/22-rdf-syntax-ns#"
   xmlns:svg="http://www.w3.org/2000/svg"
   xmlns="http://www.w3.org/2000/svg"
   xmlns:sodipodi="http://sodipodi.sourceforge.net/DTD/sodipodi-0.dtd"
   xmlns:inkscape="http://www.inkscape.org/namespaces/inkscape"
   viewBox="0 0 88 88"
   xml:space="preserve"
   width="88px"
   height="88px"
   id="svg2"
   version="1.1"
   inkscape:version="0.48.1 "
   sodipodi:docname="GabinoFanhunter.svg"
   inkscape:export-filename="C:\home\jnrosal\My Dropbox\Photos\GabinoFanhunterSVG.png"
   inkscape:export-xdpi="184.09091"
   inkscape:export-ydpi="184.09091"><metadata
   id="metadata46"><rdf:RDF><cc:Work
       rdf:about=""><dc:format>image/svg+xml</dc:format><dc:type
         rdf:resource="http://purl.org/dc/dcmitype/StillImage" /><dc:title></dc:title></cc:Work></rdf:RDF></metadata><defs
   id="defs44" /><sodipodi:namedview
   pagecolor="#ffffff"
   bordercolor="#666666"
   borderopacity="1"
   objecttolerance="10"
   gridtolerance="10"
   guidetolerance="10"
   inkscape:pageopacity="0"
   inkscape:pageshadow="2"
   inkscape:window-width="1280"
   inkscape:window-height="774"
   id="namedview42"
   showgrid="false"
   inkscape:zoom="2.9886364"
   inkscape:cx="-7.7814249"
   inkscape:cy="44.467992"
   inkscape:window-x="-4"
   inkscape:window-y="-4"
   inkscape:window-maximized="1"
   inkscape:current-layer="svg2" />
    <path
   d="m 43,0 44,0 0,23 0,24 -4,-4 c -2.666667,-2 -5.333333,-3.666667 -8,-5 -2,-0.666667 -4,-1 -6,-1 -1.333333,0 -2.333333,-0.666667 -3,-2 l 0,-2 2,0 c 2,0 3.333333,-0.666667 4,-2 1.333333,-0.666667 2,-2.333333 2,-5 0.666667,-2.666667 0.333333,-5 -1,-7 -1.333333,-1.333333 -3,-2.333333 -5,-3 l -2,0 0,-3 C 66,11.666667 65.333333,10.333333 64,9 63.333333,8.3333333 61.666667,7.3333333 59,6 57,4.6666667 54.666667,3.6666667 52,3 49.333333,2.3333333 46,2 42,2 38.666667,2 36.666667,2.3333333 36,3 35.333333,3.6666667 33.60735,4.1297804 31,5 29.002535,5.6666667 27.337136,5.3295311 25,7 24.333333,8.3333333 24,9.6666667 24,11 l 0,3 -2,0 c -1.333333,0 -2.666667,0.333333 -4,1 -0.666667,1.333333 -1,2.666667 -1,4 0.666667,1.333333 0.666667,2.333333 0,3 -0.666667,0.666667 -1.333333,2 -2,4 -0.666667,2.666667 -0.333333,4.666667 1,6 1.333333,1.333333 2.666667,1.666667 4,1 l 3,-1 -1,2 c -0.666667,2 -2.666667,3.333333 -6,4 -2.666667,0.666667 -6,3 -10,7 L 0,51 0,26 0,1 0,0 0,0 z"
   id="path4"
   style="fill:#ffffff;stroke:#ffffff;stroke-width:1px"
   inkscape:connector-curvature="0"
   sodipodi:nodetypes="ccccccsccscccccsscsssscscsccscsccccscccccc" />
    <path
   d="M 44.007605,7.0152091 C 47.583274,8.8081372 52.394709,1.2797496 52,4 c -0.679341,4.6818758 4.998733,2.3346008 6.326996,4 3.333334,2 8.624736,4.386756 4.330799,5 C 59.625579,13.43305 66,16.333333 68,17 c 2,0.666667 3.333333,1.666667 4,3 1.333333,1.333333 1.666667,3.333333 1,6 0,2.666667 -0.333333,4.333333 -1,5 -0.666667,0.666667 -2,1 -4,1 l -8.022814,-2.342205 5.688213,6.015209 C 66.655665,36.720197 67.976285,37.642952 72,39 c 4.666667,1.333333 8.333333,3 11,5 2.666667,2.666667 4,4.333333 4,5 l 0,1 -4,-4 c -2.666667,-2 -5.666667,-3.666667 -9,-5 -3.333333,-1.333333 -5.333333,-1.666667 -6,-1 -0.666667,0.666667 -1,2.666667 -1,6 0.666667,3.333333 0.333333,5.666667 -1,7 -0.666667,1.333333 -7.356147,4.342205 -8.022814,4.342205 -0.666667,0 4.689481,-3.012674 4.022814,-2.346007 -8.362484,2.337135 -8.689481,4.338403 -12.022814,6.338403 -3.333333,2 -7.342205,4.671736 -2.323194,5.003802 C 52.001268,66.001268 53.666667,66 57,66 l 5,0 0,10 0,11 -1,-3 -1,-2 -2,1 -1,2 -2,-2 c -0.666667,-0.666667 -1.666667,-0.666667 -3,0 -0.666667,1.333333 -1,2.333333 -1,3 l 0,1 -2,-2 c -1.333333,-1.333333 -3.666667,-2 -7,-2 -2.666667,0.666667 -4.333333,1.333333 -5,2 l -1,2 0,-2 c 0,-1.333333 -0.333333,-2.333333 -1,-3 -0.666667,-0.666667 -1.666667,-1 -3,-1 l -1,1 -1,-1 0,-1 -3,2 c -1.333333,1.333333 -2,2.333333 -2,3 0,1.333333 -0.333333,2 -1,2 l -1,0 0,-11 0,-10 6,0 c 4,0 5.162918,0.110262 14.361217,0.0038 12.86806,-0.148933 -0.337136,-3.674271 -1.003803,-5.007604 C 41.690747,60.329531 34.666667,61 34,61 l 0,1 0,-1 c 0,-0.666667 -1.333333,-1.333333 -4,-2 -2,0 -4,-1.333333 -6,-4 -2,-2.666667 -3,-6 -3,-10 l 0,-6 -3,0 c -1.333333,0.666667 -3,1.666667 -5,3 -2,1.333333 -4.6666667,3.666667 -8,7 l -5,6 0,-2 c 0,-0.666667 1.3333333,-2.666667 4,-6 2.6666667,-2.666667 5,-4.666667 7,-6 2,-1.333333 4.333333,-2.333333 7,-3 2.666667,-0.666667 4.333333,-2 5,-4 0.666667,-1.333333 0.666667,-2.333333 0,-3 -0.666667,0 -1.666667,0.333333 -3,1 -1.333333,0.666667 -2.666667,0.333333 -4,-1 C 15.333333,30.333333 14.664131,27.662865 15.330798,24.996198 28.377694,27.346008 17.333333,22.666667 18,22 c 0.666667,-0.666667 3.343473,-1.666667 2.676806,-3 0,-1.333333 -0.670469,-1.664131 -0.0038,-2.330798 0.666667,-0.666667 1.332066,-0.329531 2.665399,-0.996198 L 25,14 25,11 C 25,9.6666667 25.333333,8.6666667 26,8 26.666667,7.3333333 32.013941,12.021546 31,5.3346008 34.667934,10.356147 36,3.6666667 36,3 z"
   id="path6"
   inkscape:connector-curvature="0"
   style="fill:#222222;stroke:#222222;stroke-width:1px"
   sodipodi:nodetypes="sscssccsscsccsccssccscscscccccccscscscccsscccccsscccsscccscssccsccscssccsscscsccssccs" />
    <path
   d="M37 7  L 37 10 L 38 9 Q 39 9 39 8 L 39 7 L 41 8 Q 43 9 45 9 Q 48 9 49 8 L 50 7 L 50 8 Q 51 9 53 8 L 55 8 L 54 9 Q 53 10 53 11 L 54 12 L 55 11 Q 57 10 59 10 L 62 11 L 59 11 L 57 11 L 60 14 L 64 17 L 62 20 Q 61 23 62 24 Q 63 25 65 25 Q 67 25 67 26 Q 67 27 68 27 L 69 28 L 69 25 Q 70 23 69 22 Q 68 21 66 21 L 64 21 L 65 20 Q 66 19 68 19 Q 70 20 70 24 L 71 29 L 66 29 Q 62 29 60 27 Q 58 25 59 21 Q 60 17 59 15 Q 58 14 56 13 Q 54 13 48 15 Q 42 18 38 17 Q 35 16 33 16 Q 31 17 30 18 Q 29 20 29 23 Q 30 26 27 28 Q 24 30 23 29 Q 22 29 20 30 L 18 31 L 18 28 L 18 26 L 18 27 Q 18 29 19 29 L 20 30 L 20 28 Q 21 27 23 26 L 26 25 L 23 24 Q 20 23 20 22 Q 21 22 23 21 L 26 21 L 24 20 L 23 19 L 25 17 Q 27 15 27 12 Q 27 10 27 9 L 28 9 L 28 11 Q 28 13 29 13 L 30 14 L 31 11 L 32 8 L 32 10 L 32 12 L 34 9 Q 36 6 36 5 L 37 5 L 37 7 Z"
   stroke="#FFFFFF"
   stroke-width="1px"
   fill="#FFFFFF"
   id="path8" />
    <path
   d="M55 17  L 57 17 L 56 20 L 55 23 L 51 22 Q 48 21 44 21 Q 40 21 36 22 L 33 24 L 32 22 L 32 21 L 38 21 Q 44 21 48 19 Q 53 18 53 17 Q 54 17 55 17 Z"
   stroke="#FFFFFF"
   stroke-width="1px"
   fill="#FFFFFF"
   id="path10" />
    <path
   d="m 44,25 6.992395,1.003802 C 52.325728,26.670469 55.666667,26.666667 57,28 c 2,1.333333 3.666667,3.333333 5,6 2,2.666667 2.666667,5.666667 2,9 0,4 -1,7 -3,9 -2,2 -5.333333,3.666667 -10,5 -4,1.333333 -8.666667,1.333333 -14,0 -4.666667,-1.333333 -8,-3.333333 -10,-6 -2,-2 -3,-5 -3,-9 0,-4 0.333333,-6.666667 1,-8 0.666667,-1.333333 3.335868,-4.003802 6.669202,-6.003802 4,-2 11.019011,-2.998733 6.669201,-2.326996 z"
   id="path12"
   inkscape:connector-curvature="0"
   style="fill:#ffffff;stroke:#ffffff;stroke-width:1px"
   sodipodi:nodetypes="cccccscccssccc" />
    <path
   d="m 20,40 1,0 0.338403,5.673004 c -0.666667,3.333333 2.675539,5.997465 5.342205,9.330798 2.666667,4 0.65019,2.653993 2.65019,2.653993 2.666667,0.666666 22.401775,4.67934 7.676807,3.003802 L 36,64 30,64 c -4,0 -6.333333,0.333333 -7,1 -0.666667,0.666667 -1,4.333333 -1,11 L 22,87 12,87 3,87 4,77 C 4.6666667,70.333333 5.3333333,66.333333 6,65 L 7,64 5,62 3,61 2,65 C 1.3333333,68.333333 1,72.666667 1,78 l 0,8 -1,-1 0,0 0,-15 c 0,-9.333333 1.6666667,-16 5,-20 3.3333333,-3.333333 6.333333,-5.666667 9,-7 2.666667,-1.333333 4,-2.333333 4,-3 z"
   id="path14"
   inkscape:connector-curvature="0"
   style="fill:#ffffff;stroke:#ffffff;stroke-width:1px"
   sodipodi:nodetypes="cccccccssscccscccccscccscscc" />
    <path
   d="m 74,42 c 3.333333,1.333333 6.333333,3 9,5 2.666667,2.666667 4,5.666667 4,9 l 0,5 -2,0 c -0.666667,0.666667 -0.666667,1.666667 0,3 1.333333,1.333333 2,5.333333 2,12 l 0,11 -12,0 -12,0 0,-11 c 0,-6.666667 -0.333333,-10.333333 -1,-11 -0.666667,-0.666667 -2,-1 -4,-1 -2,0 -3.666667,0.333333 -5,1 l -2,1 0,-1 c 0.666667,-0.666667 -24.769328,0.676806 -3.69962,-4 4.671736,-2.671736 13.363752,-3.670469 14.030418,-5.003802 0.666667,-0.666667 1.667934,-3.007605 2.334601,-3.007605 0.666667,0 -0.340938,0.338403 0.992396,-1.661597 1.333333,-1.333333 3.005069,-2.328263 2.338403,-5.661597 L 68,40 c -1.675539,-1.338403 2.666667,0.666667 6,2 z"
   id="path16"
   inkscape:connector-curvature="0"
   style="fill:#ffffff;stroke:#ffffff;stroke-width:1px"
   sodipodi:nodetypes="scscccscccssssccccscccs" />
    
    
    
    <path
   d="M4 62  L 6 63 L 5 65 Q 4 67 3 77 L 2 87 L 1 86 L 0 86 L 1 86 L 2 86 L 2 74 Q 3 63 3 62 L 3 62 L 4 62 Z"
   stroke="#222222"
   stroke-width="1px"
   fill="#222222"
   id="path24" />
    
    <path
   d="M86 62  Q 87 62 87 63 L 87 65 L 86 64 Q 85 63 85 62 L 85 62 L 86 62 Z"
   stroke="#222222"
   stroke-width="1px"
   fill="#222222"
   id="path28" />
    <path
   d="M 43.676806,68.992395 C 49.976662,75.358757 41.565345,72.523394 48,70 c 0.666667,0.666667 1,2.666667 1,6 l 0,6 -3,-1 c -0.240736,-3.642635 -7.859205,4.75376 -4,-1 0,0 -1.808383,2.621337 -3,-1.657795 -0.172089,-4.20751 1,-5.275203 1,-7.342205 -0.666667,1.333333 -1.333333,2.666667 -2,4 5.682406,-6.386569 4.90295,-4.468534 2.342205,-5.996198 z"
   id="path30"
   style="fill:#00ffff;stroke:#ffffff;stroke-width:0;stroke-miterlimit:4;stroke-dasharray:none"
   inkscape:connector-curvature="0"
   sodipodi:nodetypes="ccscccccccc" />
    <path
   d="M59 72  Q 60 74 59 75 Q 58 76 59 78 L 60 80 L 58 81 Q 57 82 55 81 Q 53 80 52 81 L 52 82 L 52 79 Q 52 77 53 76 L 54 76 L 53 75 L 52 74 L 54 72 Q 57 71 57 70 Q 58 70 59 72 Z"
   stroke="#FFFFFF"
   stroke-width="1px"
   fill="#FFFFFF"
   id="path32"
   style="fill:#00ffff;stroke-width:0;stroke-miterlimit:4;stroke-dasharray:none" />
    <path
   d="M 33.003802,72.669202 C 36.679341,75.008872 34,74 34,76 l 1,4 -2,0 c -0.666667,0 -1.333333,-0.333333 -2,-1 -0.666667,-0.666667 -1.666667,-0.666667 -3,0 l -2,2 0,-4 1,-3 c 1.477681,0.979967 1.999813,-5.538896 3.669202,-4.007605 0.666667,0 3.006336,-1.673003 2.3346,2.676807 z"
   id="path34"
   style="fill:#ff9955;stroke:#ffffff;stroke-width:0;stroke-miterlimit:4;stroke-dasharray:none"
   inkscape:connector-curvature="0"
   sodipodi:nodetypes="cccsscccccc" />
    <path
   d="M30 82  Q 31 83 33 83 L 35 83 L 35 85 L 35 87 L 30 87 L 26 87 L 26 85 Q 26 84 27 83 Q 29 82 29 81 Q 30 81 30 82 Z"
   stroke="#FFFFFF"
   stroke-width="1px"
   fill="#FFFFFF"
   id="path36"
   style="fill:#00ff00;stroke-width:0;stroke-miterlimit:4;stroke-dasharray:none" />
    <path
   d="M55 84  L 56 86 L 58 84 L 60 83 L 60 85 L 60 87 L 56 87 L 52 87 L 52 85 Q 53 84 53 83 Q 54 83 55 84 Z"
   stroke="#FFFFFF"
   stroke-width="1px"
   fill="#FFFFFF"
   id="path38"
   style="fill:#000080;stroke-width:0;stroke-miterlimit:4;stroke-dasharray:none" />
    <path
   d="M46 84  Q 49 85 49 86 L 49 87 L 43 87 L 38 87 L 38 86 L 38 85 L 40 85 Q 42 85 42 84 Q 43 84 46 84 Z"
   stroke="#FFFFFF"
   stroke-width="1px"
   fill="#FFFFFF"
   id="path40"
   style="fill:#00ff00;stroke-width:0;stroke-miterlimit:4;stroke-dasharray:none" />
<path
   sodipodi:type="arc"
   style="fill:#ffff00;stroke:#000000;stroke-width:0;stroke-miterlimit:4;stroke-opacity:1;stroke-dasharray:none"
   id="path3791"
   sodipodi:cx="56.547527"
   sodipodi:cy="74.615967"
   sodipodi:rx="1.6730038"
   sodipodi:ry="1.6730038"
   d="m 58.220531,74.615967 a 1.6730038,1.6730038 0 1 1 -3.346007,0 1.6730038,1.6730038 0 1 1 3.346007,0 z" /></svg>